<svg width="18" height="19" viewBox="0 0 18 19" fill="none" xmlns="http://www.w3.org/2000/svg">
<path d="M6.85547 12.3789C7.17188 12.4492 7.34766 12.7656 7.27734 13.0469C7.20703 13.3633 6.89062 13.5391 6.60938 13.4688L5.48438 13.1875C5.16797 13.1172 4.99219 12.8008 5.0625 12.5195C5.13281 12.2031 5.44922 12.0273 5.73047 12.0977L6.85547 12.3789ZM8.71875 12.4844C8.40234 12.4141 8.22656 12.0977 8.29688 11.8164L8.57812 10.6914C8.64844 10.375 8.96484 10.1992 9.24609 10.2695C9.5625 10.3398 9.73828 10.6562 9.66797 10.9375L9.38672 12.0625C9.31641 12.3789 9 12.5547 8.71875 12.4844ZM11.7422 6.15625C11.6016 6.4375 11.25 6.54297 10.9688 6.40234C10.6875 6.26172 10.582 5.91016 10.7227 5.62891L11.2852 4.50391C11.4258 4.22266 11.7773 4.11719 12.0586 4.25781C12.3398 4.39844 12.4453 4.75 12.3047 5.03125L11.7422 6.15625ZM18 9.25C18 14.2422 13.957 18.25 9 18.25C4.00781 18.25 0 14.2422 0 9.25C0 4.29297 4.00781 0.25 9 0.25C13.957 0.25 18 4.29297 18 9.25ZM11.3906 2.35938L10.8281 3.80078C10.7227 4.04688 10.5117 4.25781 10.2656 4.29297L9.66797 4.46875C9.07031 4.60938 8.82422 5.3125 9.17578 5.76953L9.73828 6.54297C9.94922 6.82422 9.98438 7.21094 9.77344 7.52734L9.38672 8.08984C9.14062 8.47656 8.68359 8.6875 8.22656 8.6875H8.15625C7.59375 8.6875 7.17188 9.25 7.34766 9.77734L7.55859 10.4805C7.69922 11.0078 7.3125 11.5 6.78516 11.5C6.39844 11.5 6.04688 11.2891 5.90625 10.9727L5.55469 10.3047C5.30859 9.8125 4.64062 9.67188 4.21875 10.0938L3.69141 10.6211C3.48047 10.832 3.19922 10.9375 2.91797 10.8672L1.79297 10.6562C2.42578 14.0312 5.41406 16.5625 9 16.5625C10.6875 16.5625 12.2344 16 13.4648 15.0508L13.2539 14.875L12.5859 15.1211C11.918 15.4023 11.1445 15.0508 10.8281 14.3828L10.6172 13.9609C10.3359 13.293 10.582 12.5195 11.2148 12.168L12.5156 11.4297C12.5859 11.3945 12.6562 11.3242 12.6914 11.2539L12.9023 10.9375C13.1133 10.5859 13.5 10.375 13.8867 10.375C14.2734 10.375 14.6602 10.5859 14.8711 10.9375L14.9414 11.043C15.0469 11.2188 15.293 11.3242 15.5391 11.2539L16.0664 11.1133C16.207 10.5156 16.3125 9.91797 16.3125 9.25C16.3125 6.08594 14.2383 3.37891 11.3906 2.35938Z" fill="#B4975A"/>
</svg>
