<svg width="19" height="19" viewBox="0 0 19 19" fill="none" xmlns="http://www.w3.org/2000/svg">
<path d="M11.4961 6.75391C11.4258 5.17188 10.1602 3.90625 8.57812 3.90625C7.62891 3.90625 6.82031 4.32812 6.29297 4.99609C5.80078 4.67969 5.23828 4.46875 4.64062 4.46875C2.98828 4.46875 1.6875 5.80469 1.6875 7.42188C1.6875 8.05469 1.86328 8.61719 2.17969 9.10938C1.51172 9.63672 1.125 10.4453 1.125 11.3594C1.125 11.8867 1.23047 12.3438 1.44141 12.7656C0.5625 13.2578 0 14.207 0 15.2969C0 16.9492 1.30078 18.25 2.95312 18.25C4.00781 18.25 4.99219 17.6875 5.48438 16.8086C5.90625 17.0195 6.36328 17.125 6.89062 17.125C7.80469 17.125 8.61328 16.7383 9.14062 16.0703C9.63281 16.3867 10.1953 16.5625 10.8281 16.5625C12.4453 16.5625 13.7812 15.2617 13.7812 13.6094C13.7812 13.0117 13.5703 12.4492 13.2539 11.957C13.9219 11.4297 14.3438 10.5859 14.3438 9.67188C14.3438 8.08984 13.0781 6.82422 11.4961 6.75391ZM2.95312 16.5625C2.25 16.5625 1.6875 16 1.6875 15.2969C1.6875 14.6289 2.25 14.0312 2.95312 14.0312C3.62109 14.0312 4.21875 14.6289 4.21875 15.2969C4.21875 16 3.62109 16.5625 2.95312 16.5625ZM4.07812 12.625C3.375 12.625 2.8125 12.0625 2.8125 11.3594C2.8125 10.6914 3.375 10.0938 4.07812 10.0938C4.74609 10.0938 5.34375 10.6914 5.34375 11.3594C5.34375 12.0625 4.74609 12.625 4.07812 12.625ZM4.64062 8.6875C3.9375 8.6875 3.375 8.125 3.375 7.42188C3.375 6.75391 3.9375 6.15625 4.64062 6.15625C5.30859 6.15625 5.90625 6.75391 5.90625 7.42188C5.90625 8.125 5.30859 8.6875 4.64062 8.6875ZM6.89062 15.4375C6.1875 15.4375 5.625 14.875 5.625 14.1719C5.625 13.5039 6.1875 12.9062 6.89062 12.9062C7.55859 12.9062 8.15625 13.5039 8.15625 14.1719C8.15625 14.875 7.55859 15.4375 6.89062 15.4375ZM7.73438 11.7812C7.03125 11.7812 6.46875 11.2188 6.46875 10.5156C6.46875 9.84766 7.03125 9.25 7.73438 9.25C8.40234 9.25 9 9.84766 9 10.5156C9 11.2188 8.40234 11.7812 7.73438 11.7812ZM8.57812 8.125C7.875 8.125 7.3125 7.5625 7.3125 6.85938C7.3125 6.19141 7.875 5.59375 8.57812 5.59375C9.24609 5.59375 9.84375 6.19141 9.84375 6.85938C9.84375 7.5625 9.24609 8.125 8.57812 8.125ZM10.8281 14.875C10.125 14.875 9.5625 14.3125 9.5625 13.6094C9.5625 12.9414 10.125 12.3438 10.8281 12.3438C11.4961 12.3438 12.0938 12.9414 12.0938 13.6094C12.0938 14.3125 11.4961 14.875 10.8281 14.875ZM11.3906 10.9375C10.6875 10.9375 10.125 10.375 10.125 9.67188C10.125 9.00391 10.6875 8.40625 11.3906 8.40625C12.0586 8.40625 12.6562 9.00391 12.6562 9.67188C12.6562 10.375 12.0586 10.9375 11.3906 10.9375ZM17.8242 5.17188C16.6641 4.08203 15.1172 3.83594 13.7812 4.46875C14.4141 3.13281 14.168 1.58594 13.0781 0.425781C12.8672 0.214844 12.4805 0.214844 12.2695 0.425781C10.8633 1.9375 10.8984 4.08203 12.4102 5.55859L12.6914 5.83984C14.168 7.35156 16.3125 7.38672 17.8242 5.98047C18.0352 5.76953 18.0352 5.38281 17.8242 5.17188Z" fill="#B4975A"/>
</svg>
