<svg width="22" height="19" viewBox="0 0 22 19" fill="none" xmlns="http://www.w3.org/2000/svg">
<path d="M15.2188 4.46875C15.2188 4.78516 15.1484 5.13672 15.0078 5.48828C14.832 6.12109 14.4805 6.85938 14.0586 7.5625C13.9531 7.77344 13.8477 7.94922 13.707 8.125C13.5664 8.37109 13.3906 8.61719 13.25 8.86328V8.89844C12.582 9.84766 11.9492 10.6914 11.4922 11.2188C11.2461 11.5703 10.7188 11.5703 10.4727 11.2188C10.0156 10.6914 9.38281 9.84766 8.75 8.89844C8.08203 7.94922 7.44922 6.85938 7.09766 5.91016C7.0625 5.83984 7.02734 5.76953 6.99219 5.69922C6.85156 5.24219 6.78125 4.85547 6.78125 4.46875C6.78125 4.32812 6.78125 4.15234 6.78125 4.01172C7.02734 1.90234 8.82031 0.25 11 0.25C13.3203 0.25 15.2188 2.14844 15.2188 4.46875ZM11 5.59375C11.7734 5.59375 12.4062 4.99609 12.4062 4.1875C12.4062 3.41406 11.7734 2.78125 11 2.78125C10.1914 2.78125 9.59375 3.41406 9.59375 4.1875C9.59375 4.99609 10.1914 5.59375 11 5.59375ZM13.25 10.832C13.707 10.1992 14.2344 9.42578 14.7266 8.65234C14.7969 8.54688 14.8672 8.44141 14.9375 8.33594V16.2109L19.4375 14.5938V5.69922L15.6055 7.07031C15.6758 6.92969 15.7461 6.75391 15.8164 6.57812C16.0273 6.08594 16.2031 5.55859 16.2734 5.03125L19.9648 3.69531C20.2461 3.58984 20.5273 3.625 20.7383 3.80078C20.9844 3.94141 21.125 4.22266 21.125 4.46875V15.1562C21.125 15.543 20.8789 15.8594 20.5625 15.9648L14.375 18.2148C14.1641 18.2852 13.9883 18.2852 13.7773 18.2148L7.90625 16.0703L2 18.2148C1.71875 18.3203 1.4375 18.2852 1.22656 18.1094C0.980469 17.9688 0.875 17.6875 0.875 17.4062V6.71875C0.875 6.36719 1.08594 6.05078 1.40234 5.94531L5.65625 4.39844C5.65625 4.43359 5.65625 4.46875 5.65625 4.46875C5.65625 5.03125 5.76172 5.55859 5.9375 6.08594L2.5625 7.31641V16.2109L7.0625 14.5938V8.33594C7.09766 8.44141 7.16797 8.54688 7.23828 8.65234C7.73047 9.42578 8.25781 10.1992 8.75 10.832V14.5938L13.25 16.2109V10.832Z" fill="#B4975A"/>
</svg>
