<svg width="19" height="19" viewBox="0 0 19 19" fill="none" xmlns="http://www.w3.org/2000/svg">
<path d="M17.7188 3.34375L14.9062 0.53125C14.5547 0.179688 14.0273 0.179688 13.7109 0.53125C13.4648 0.742188 13.4297 1.05859 13.5 1.33984L10.793 4.04688C9.07031 3.55469 7.17188 4.01172 5.90625 5.3125L0.84375 10.4102C0.28125 10.9375 0 11.6758 0 12.4492C0 13.2227 0.28125 13.9609 0.84375 14.5234L3.72656 17.4062C4.28906 17.9688 5.02734 18.25 5.80078 18.25C6.57422 18.25 7.3125 17.9688 7.83984 17.4062L12.9375 12.3086C14.2383 11.043 14.6953 9.14453 14.2031 7.42188L16.9102 4.71484C16.9805 4.75 17.0508 4.75 17.1562 4.75C17.3672 4.75 17.5781 4.67969 17.7188 4.50391C18.0703 4.1875 18.0703 3.66016 17.7188 3.34375ZM4.92188 16.2109L2.03906 13.3281C1.79297 13.082 1.6875 12.7656 1.6875 12.4492C1.6875 12.1328 1.79297 11.8164 2.03906 11.6055L2.74219 10.9023L7.34766 15.5078L6.64453 16.2109C6.1875 16.668 5.37891 16.668 4.92188 16.2109ZM12.2344 7L12.4453 7.52734C12.9727 8.75781 12.6914 10.1992 11.7422 11.1133L11.2852 11.5703L6.67969 6.96484L7.13672 6.50781C8.05078 5.55859 9.49219 5.27734 10.7227 5.80469L11.2148 6.01562L14.625 2.60547L15.6094 3.625L12.2344 7Z" fill="#B4975A"/>
</svg>
